# Blender 3.6.5
# www.blender.org
mtllib llanayFinal.mtl
o my_wheel
v -0.000000 0.181672 -0.022709
v -0.000000 0.181672 0.022709
v 0.128461 0.128462 -0.022709
v 0.128461 0.128462 0.022709
v 0.181672 0.000000 -0.022709
v 0.181672 0.000000 0.022709
v 0.128462 -0.128461 -0.022709
v 0.128462 -0.128461 0.022709
v 0.000000 -0.181672 -0.022709
v 0.000000 -0.181672 0.022709
v -0.128461 -0.128462 -0.022709
v -0.128461 -0.128462 0.022709
v -0.181672 -0.000000 -0.022709
v -0.181672 -0.000000 0.022709
v -0.128462 0.128461 -0.022709
v -0.128462 0.128461 0.022709
v -0.000000 0.000000 -0.022709
v 0.000000 0.000000 0.022709
vn -0.3827 0.9239 -0.0000
vn -0.0000 -0.0000 -1.0000
vn -0.0000 -0.0000 1.0000
vn 0.3827 0.9239 -0.0000
vn 0.9239 0.3827 -0.0000
vn 0.9239 -0.3827 -0.0000
vn 0.3827 -0.9239 -0.0000
vn -0.3827 -0.9239 -0.0000
vn -0.9239 -0.3827 -0.0000
vn -0.9239 0.3827 -0.0000
vt 0.310004 0.958691
vt 0.689996 0.958691
vt 0.500000 0.500000
vt 0.041309 0.689996
vt 0.041309 0.310004
vt 0.310004 0.041309
vt 0.689996 0.041309
vt 0.958691 0.310004
vt 0.958691 0.689997
s 0
usemtl Material.001
f 2/1/1 1/1/1 15/2/1
f 2/1/1 15/2/1 16/2/1
f 15/2/2 1/1/2 17/3/2
f 2/1/3 16/2/3 18/3/3
f 4/4/4 3/4/4 1/1/4
f 4/4/4 1/1/4 2/1/4
f 1/1/2 3/4/2 17/3/2
f 4/4/3 2/1/3 18/3/3
f 6/5/5 5/5/5 3/4/5
f 6/5/5 3/4/5 4/4/5
f 3/4/2 5/5/2 17/3/2
f 6/5/3 4/4/3 18/3/3
f 8/6/6 7/6/6 5/5/6
f 8/6/6 5/5/6 6/5/6
f 5/5/2 7/6/2 17/3/2
f 8/6/3 6/5/3 18/3/3
f 10/7/7 9/7/7 7/6/7
f 10/7/7 7/6/7 8/6/7
f 7/6/2 9/7/2 17/3/2
f 10/7/3 8/6/3 18/3/3
f 12/8/8 11/8/8 9/7/8
f 12/8/8 9/7/8 10/7/8
f 9/7/2 11/8/2 17/3/2
f 12/8/3 10/7/3 18/3/3
f 14/9/9 13/9/9 11/8/9
f 14/9/9 11/8/9 12/8/9
f 11/8/2 13/9/2 17/3/2
f 14/9/3 12/8/3 18/3/3
f 16/2/10 15/2/10 13/9/10
f 16/2/10 13/9/10 14/9/10
f 13/9/2 15/2/2 17/3/2
f 16/2/3 14/9/3 18/3/3
